<?xml version="1.0" encoding="iso-8859-1"?>
<!-- Generator: Adobe Illustrator 18.0.0, SVG Export Plug-In . SVG Version: 6.00 Build 0)  -->
<!DOCTYPE svg PUBLIC "-//W3C//DTD SVG 1.1//EN" "http://www.w3.org/Graphics/SVG/1.1/DTD/svg11.dtd">
<svg version="1.1" id="Capa_1" xmlns="http://www.w3.org/2000/svg" xmlns:xlink="http://www.w3.org/1999/xlink" x="0px" y="0px"
	 viewBox="0 0 486.369 486.369" style="enable-background:new 0 0 486.369 486.369;" xml:space="preserve">
<g>
	<g>
		<path d="M424.096,1.493c-7.263-3.022-15.622-1.374-21.186,4.189l-50.268,50.269C272.018-2.525,158.398,4.308,85.777,76.931
			L65.21,97.499c-15.796,15.794-15.796,41.443,0,57.239c7.897,7.897,18.266,11.846,28.602,11.846
			c10.371,0,20.722-3.948,28.619-11.846l20.569-20.569c40.946-40.962,103.353-47.486,151.304-19.845l-45.152,45.117
			c-5.564,5.562-7.211,13.94-4.225,21.186c3.023,7.28,10.112,12.018,17.976,12.018h153.743c10.747,0,19.451-8.722,19.451-19.436
			V19.451C436.096,11.588,431.375,4.48,424.096,1.493z"/>
	</g>
	<g>
		<path d="M363.939,331.64l-20.551,20.567c-23.676,23.691-55.195,36.74-88.691,36.74c-22.371,0-43.796-5.94-62.648-16.86
			l45.169-45.186c5.58-5.563,7.229-13.907,4.225-21.185c-3.022-7.247-10.112-11.984-17.976-11.984H69.725
			c-10.747,0-19.451,8.689-19.451,19.435v153.76c0,7.861,4.738,14.936,12,17.958c7.262,3.02,15.639,1.337,21.202-4.225
			l50.201-50.199c35.006,25.442,76.896,39.417,121.02,39.417c55.127,0,106.941-21.46,145.932-60.466l20.549-20.533
			c15.794-15.83,15.794-41.444,0-57.239C405.365,315.845,379.733,315.845,363.939,331.64z"/>
	</g>
</g>
<g>
</g>
<g>
</g>
<g>
</g>
<g>
</g>
<g>
</g>
<g>
</g>
<g>
</g>
<g>
</g>
<g>
</g>
<g>
</g>
<g>
</g>
<g>
</g>
<g>
</g>
<g>
</g>
<g>
</g>
</svg>
